<svg viewBox="160 240 1080 530" xmlns="http://www.w3.org/2000/svg">
  <title>heimdall-horn-sounding</title>
  <path d="M354.485 291.938C396.711 290.942 438.95 290.654 481.186 291.073C510.871 291.078 545.221 290.384 574.523 291.812C566.652 303.822 569.462 306.03 570.826 319.852C571.087 322.498 568.434 323.1 566.182 325.768C564.776 346.314 581.742 390.293 591.884 408.539C638.742 492.834 721.393 538.753 811.207 564.743C890.82 587.781 980.887 587.754 1058.88 558.09C1073.8 552.412 1085.54 546.15 1099.33 538.572C1110.35 550.188 1123.11 556.748 1138.7 559.952C1122.7 549.684 1118.92 550.748 1102.39 536.352C1123.52 520.433 1144.76 501.706 1159.51 479.481L1159.23 478.966C1156.61 473.858 1156.19 468.348 1157.09 462.626C1158.84 451.457 1171.35 444.628 1179.91 438.955C1178.89 432.852 1178.74 424.712 1186.58 423.355C1195.02 424.762 1192.99 433.637 1192.01 439.442L1197.38 445.125C1196.55 448.423 1195.32 451.51 1194.14 454.696C1201.7 461.134 1202.28 463.151 1199.04 472.786C1196.74 479.647 1189.72 485.889 1187.32 492.128C1179.47 512.552 1173.59 531.578 1162.36 550.56C1159.48 551.011 1157.47 551.151 1154.81 552.405C1155.88 553.196 1156.37 553.747 1157.3 554.688C1157.03 559.191 1143.41 573.191 1139.84 576.856C1076.14 642.37 970.095 670.46 880.35 671.244C877.838 681.674 876.502 694.716 881.617 704.607C889.327 719.522 910.425 711.889 919.328 724.871C920.97 727.265 922.62 731.247 922.027 734.125C919.507 736.034 915.465 735.948 912.637 735.94C894.757 735.886 897.592 734.214 887.34 722.099C884.415 718.644 878.91 718.023 874.358 718.111C879.383 721.463 892.98 727.428 890.925 734.772C886.598 738.245 878.325 733.393 872.438 733.105C867.51 732.861 860.138 735.037 856.538 732.836C854.325 727.243 863.752 721.435 862.027 716.838C855.817 700.327 848.692 690.115 845.595 672.058C753.157 671.154 653.855 658.386 568.342 621.693C565.7 634.147 561.976 643.785 556.55 656.119C549.859 671.331 535.027 691.345 532.441 707.984C531.538 713.793 536.845 725.808 535.297 731.658C531.94 734.955 516.193 734.245 511.945 732.77C510.901 728.977 515.609 721.033 517.528 717.09C511.469 722.375 509.707 727.519 504.32 732.865C502.473 734.699 496.988 735.208 494.954 731.796C494.664 724.381 505.465 714.988 509.914 708.292L510.433 707.503C496.994 718.263 495.887 719.207 486.364 733.582C481.961 734.142 476.196 735.823 474.164 731.008C474.577 720.066 488.739 715.265 496.686 710.614C521.614 696.025 519.271 669.685 522.277 644.774C523.661 633.295 525.997 620.421 530.644 609.243C461.465 566.818 428.941 526.198 396.158 452.189C399.183 473.162 407.446 484.965 417.547 503.408C418.984 505.888 419.917 507.571 421.126 510.199C414.463 508.935 409.908 508.703 404.67 504.305C402.721 500.841 401.677 495.474 399.367 492.694C396.149 488.82 390.906 485.67 389.179 480.565C385.949 471.022 391.23 456.938 389.779 447.469C388.876 441.57 384.266 430.254 382.201 424.037C378.826 413.881 376.755 405.965 374.569 395.503C386.765 397.38 394.048 398.845 405.118 403.262C432.945 414.364 428.476 425.703 445.256 445.071C451.449 451.884 461.476 455.483 467.29 462.477C472.684 468.964 471.829 485.008 481.32 488.85C483.945 489.913 491.643 488.543 494.009 486.847C519.751 468.405 508.057 430.25 529.243 408.268C539.291 397.57 545.897 393.627 558.268 386.459C561.431 384.626 568.072 381.32 568.929 378.287C568.264 378.123 567.708 377.969 567.014 378.062C559.637 379.061 550.967 384.874 544.789 388.832C494.564 421.013 518.62 453.189 495.366 478.098C492.947 480.69 489.196 482.402 485.664 482.565C478.165 480.184 477.619 467.205 474.787 462.471C467.614 450.48 451.013 449.221 443.554 433.688C440.031 426.349 430.822 408.683 432.94 400.899L434.219 400.5C436.009 402.272 439.943 413.811 441.717 417.082C446.497 425.897 452.737 434.601 460.26 441.179C458.477 436.774 456.764 432.341 455.123 427.882C453 422.067 446.947 405.79 449.39 400.533L450.538 400.42C455.811 407.443 479.797 475.873 491.778 469.076C492.163 465.993 489.45 461.033 487.85 458.672C477.212 442.982 472.304 427.336 469.234 408.729C468.599 404.886 466.866 390.596 464.182 388.226C459.145 387.146 455.632 390.023 451.224 392.63C444.641 391.491 435.656 386.992 429.314 384.12L430.825 375.579C424.513 370.777 412.405 368.848 411.514 361.35C413.059 355.769 419.107 354.375 423.085 350.738C427.927 346.312 423.781 347.921 424.083 343.571C432.359 333.6 447.622 332.647 458.566 328.13L459.462 327.755C434.085 328.314 408.607 327.433 383.288 328.115C388.466 347.334 391.729 375.19 396.639 396.424C390.188 395.087 380.38 392.998 373.987 393.034C369.694 371.103 365.916 349.073 362.657 326.964C356.8 323.175 358.113 320.207 358.425 313.733C358.873 304.415 358.255 300.462 354.485 291.938ZM563.506 540.818C572.347 546.042 580.476 552.015 589.056 557.193C601.558 564.736 617.263 573.185 630.523 579.066C661.955 592.929 694.837 603.239 728.557 609.804C810.18 625.329 912.893 618.952 993.315 598.232C996.443 597.427 999.555 596.6 1002.67 595.754C1035.76 586.085 1063.79 576.276 1093.65 558.472C1083 561.31 1069.79 568.388 1058.91 572.078C1041.19 578.09 1021.22 584.662 1002.87 588.657C888.555 613.555 747.331 613.815 643.255 554.717C618.948 540.914 609.71 531.168 591.34 513.092C596.242 509.143 605.276 500.371 610.16 495.799C615.278 491.008 630.554 479.171 634.186 474.729C632.895 473.104 633.718 473.708 631.451 473.151C590.935 499.108 543.922 543.818 516.732 584.67C516.676 585.122 516.621 585.573 516.565 586.024C518.031 586.814 518.558 586.61 520.19 586.144C522.203 585.569 556.112 546.457 563.506 540.818ZM509.545 565.973C505.111 571.325 503.509 574.433 500.05 580.343C507.455 573.386 515.334 563.433 522.259 555.667C532.02 544.85 542.119 534.341 552.539 524.157C565.347 511.539 578.597 499.379 592.266 487.699C600.631 480.583 612.64 471.2 620.405 463.999C616.094 460.303 614.111 457.573 608.514 457.343C607.009 458.628 604.427 460.69 603.487 462.381C601.309 466.293 603.848 472.224 598.729 472.464C593.733 469.864 587.826 466.046 584.317 472.965C581.693 478.14 588.404 480.245 583.021 485.112C578.151 484.552 576.817 477.83 569.621 483.303C563.743 487.775 568.004 493.528 565.451 497.469C564.363 497.874 548.587 492.318 550.574 504.992C550.954 507.416 553.137 507.71 553.108 511.079L551.642 512.548C544.982 511.47 537.821 507.632 534.528 518.352C533.809 520.692 537.556 524.692 536.672 527.841C534.384 528.481 521.311 521.627 521.693 533.739C523.733 537.695 527.752 539.209 526.103 543.114C522.865 550.781 514.048 558.934 509.545 565.973ZM812.94 576.009C766.89 565.952 707.129 543.755 667.092 520.135C657.75 514.614 648.673 508.656 639.892 502.279C634.597 498.478 626.2 491.854 620.683 489.093C624.069 494.467 634.18 503.635 639.358 507.78C679.498 539.909 732.053 559.636 781.672 571.322C789.165 573.087 805.62 576.411 812.94 576.009ZM513.679 344.901C514.468 354.568 515.256 363.421 514.272 373.106C498.097 375.928 453.612 380.725 449.564 358.432C448.792 354.213 449.833 349.864 452.434 346.453C458.965 338.033 476.496 335.159 486.709 334.143C492.222 333.594 502.994 333.783 507.419 332.381L508.08 331.464C504.21 329.352 485.794 329.726 481.167 330.371C469.131 331.826 450.334 335.133 442.852 345.267C436.868 353.371 437.386 362.356 448.395 371.426C462.05 382.676 501.393 382.685 516.785 375.18C519.442 373.885 516.909 348.726 515.63 342.73C515.273 341.011 514.787 339.321 514.176 337.675L513.56 337.474C512.938 340.642 513.235 341.796 513.679 344.901ZM497.452 457.644L497.74 456.975C499.697 452.312 500.213 444.321 500.639 439.369C503.537 405.683 527.234 386 555.706 372.247C557.15 371.549 564.034 368.199 564.367 366.967L563.544 366.84C537.52 375.382 515.648 386.886 502.152 411.913C496.594 422.22 491.776 446.915 497.452 457.644ZM396.187 317.297L495.784 318.007C510.135 318.009 551.965 318.357 563.863 314.825C555.026 313.754 536.386 313.94 527.207 314.746C512.959 315.659 494.594 315.149 479.996 315.122L401.8 314.997C395.173 314.985 365.635 314.288 361.096 315.829C370.044 317.544 386.548 317.258 396.187 317.297ZM489.085 549.158C485.709 544.304 479.08 538.161 474.913 533.769C444.57 501.78 424.003 462.541 409.235 421.282C408.835 420.165 407.814 418.86 406.789 418.226C416.572 459.207 439.776 497.912 467.22 529.53C471.436 534.386 483.486 547.253 489.085 549.158ZM482.944 392.738C488.039 392.522 492.951 390.508 497.14 387.652L496.405 387.043L493.969 387.288C490.383 387.932 481.412 389.068 478.678 390.468L478.731 391.308C480.751 392.397 480.676 392.363 482.944 392.738ZM573.166 425.058C576.205 430.139 588.826 452.58 593.529 454.098C590.305 449.012 577.075 427.469 573.166 425.058ZM505.15 561.952C506.35 561.123 506.994 559.699 506.824 558.25C506.656 556.801 505.701 555.564 504.342 555.034C502.984 554.505 501.443 554.768 500.338 555.72C498.751 557.088 498.51 559.458 499.79 561.117C501.071 562.775 503.425 563.142 505.15 561.952ZM507.694 495.262C512.64 502.524 518.697 510.221 525.634 515.679C528.176 513.295 531.169 510.617 533.527 508.12C528.776 502.592 519.857 486.799 516.728 485.692C512.565 489.004 510.694 490.803 507.694 495.262ZM1168.3 469.065L1167.59 469.95C1170.44 471.776 1182.16 473.971 1186.22 474.974L1186.83 473.96C1183.71 469.627 1173.33 468.411 1168.3 469.065ZM471.442 308.752C472.581 308.204 473.326 307.072 473.379 305.81C473.433 304.547 472.788 303.358 471.7 302.714C470.612 302.071 469.259 302.079 468.178 302.734C466.615 303.682 466.072 305.691 466.944 307.298C467.816 308.905 469.795 309.545 471.442 308.752ZM852.023 647.491L850.41 649.578C853.088 652.013 868.372 651.105 873.06 651.093L874.102 650.476C872.07 648.378 859.358 647.317 855.953 647.286C854.64 647.28 853.328 647.349 852.023 647.491ZM865.762 641.318C867.135 638.959 867.217 638.649 867.247 635.922C864.907 632.155 861.855 632.91 857.753 633.209C856.733 635.649 855.637 637.408 856.012 639.935C858.487 642.412 862.357 641.506 865.762 641.318ZM439.126 308.76C440.257 308.293 441.045 307.247 441.178 306.029C441.312 304.812 440.771 303.619 439.768 302.918C438.763 302.217 437.458 302.119 436.361 302.664C434.746 303.466 434.056 305.404 434.801 307.047C435.546 308.69 437.458 309.447 439.126 308.76ZM529.531 656.623C532.319 649.425 543.528 622.342 542.911 616.113C540.811 614.68 541.183 615.161 538.132 615.106C533.113 623.378 527.275 649.875 528.174 658.407C529.316 657.737 528.795 658.097 529.531 656.623ZM487.874 308.438C488.903 307.835 489.529 306.726 489.514 305.533C489.498 304.341 488.844 303.249 487.799 302.673C486.755 302.097 485.482 302.127 484.466 302.75C482.917 303.7 482.422 305.722 483.356 307.281C484.291 308.841 486.306 309.356 487.874 308.438ZM870.525 659.437L869.13 662.2L869.858 663.281C873.66 663.989 881.175 662.995 885.907 663.112L886.942 662.679C884.032 658.977 874.777 659.073 870.525 659.437ZM894.795 720.365L894.42 721.423C900.998 724.232 905.167 726.65 908.407 733.268C911.88 725.224 902.363 719.695 894.795 720.365ZM407.654 308.738C408.814 308.242 409.568 307.103 409.571 305.841C409.574 304.58 408.826 303.437 407.668 302.936C406.51 302.435 405.166 302.671 404.248 303.537C403.135 304.587 402.936 306.284 403.774 307.564C404.612 308.844 406.247 309.338 407.654 308.738ZM420.021 303.567C418.864 304.726 418.802 306.583 419.878 307.817C420.955 309.051 422.803 309.241 424.108 308.253C425.036 307.549 425.494 306.387 425.296 305.239C425.099 304.09 424.277 303.149 423.167 302.797C422.057 302.445 420.844 302.742 420.021 303.567ZM452.255 302.849C450.781 303.805 450.334 305.76 451.246 307.262C452.158 308.765 454.099 309.269 455.627 308.401C456.656 307.817 457.286 306.718 457.271 305.535C457.256 304.351 456.599 303.269 455.556 302.71C454.513 302.151 453.248 302.205 452.255 302.849ZM870.113 709.946C868.305 700.392 864.21 691.985 860.258 683.142C859.8 690.492 863.603 706.366 870.113 709.946ZM516.926 303.316C515.539 304.42 515.299 306.436 516.387 307.835C517.476 309.235 519.488 309.498 520.9 308.425C521.827 307.72 522.304 306.571 522.148 305.416C521.993 304.262 521.23 303.28 520.149 302.845C519.068 302.41 517.837 302.59 516.926 303.316ZM843.855 660.241C842.123 661.492 840.705 661.974 840.39 663.623C842.783 664.491 847.882 664.008 850.688 663.898L852.9 663.502L853.282 662.429C850.875 659.464 847.245 659.914 843.855 660.241ZM503.64 308.588C504.799 308.114 505.589 307.024 505.678 305.775C505.768 304.526 505.141 303.334 504.061 302.7C502.982 302.066 501.636 302.099 500.589 302.786C499.171 303.716 498.691 305.571 499.481 307.072C500.27 308.574 502.07 309.229 503.64 308.588ZM373.699 303.295C372.358 304.276 371.982 306.114 372.828 307.544C373.675 308.973 375.467 309.526 376.972 308.823C378.083 308.302 378.804 307.196 378.829 305.968C378.856 304.741 378.184 303.604 377.095 303.037C376.006 302.47 374.689 302.57 373.699 303.295ZM1116.68 532.507L1116.19 534.145C1118.26 537.962 1124.85 541.94 1128.96 542.935C1129.11 536.462 1122.47 532.796 1116.68 532.507ZM515.085 540.603C512.518 543.148 511.122 544.2 509.987 547.634C510.37 550.181 509.794 549.151 511.818 550.803L514.477 551.246C516.466 549.079 518.627 547.15 519.315 544.31C518.63 541.697 517.721 541.342 515.085 540.603ZM540.76 604.78L540.622 606.471C543.953 608.797 555.538 612.384 559.54 612.977C558.591 607.189 545.925 604.15 540.76 604.78ZM1176.86 451.618C1173.56 452.859 1169.69 454.606 1167.89 457.78L1168.61 458.714C1171.47 458.928 1172.34 458.558 1175.07 457.87C1178.3 457.397 1181.11 457.38 1183.37 455.096L1183.8 453.832C1181.86 451.924 1179.62 451.698 1176.86 451.618ZM551.826 587.299C546.932 589.811 543.117 591.175 540.373 595.997L540.277 597.351C542.926 596.656 545.164 595.928 547.924 595.974C553.437 595.17 556.587 595.39 560.203 591.213L560.296 589.555C558.35 587.51 554.526 587.151 551.826 587.299ZM542.62 585.162C549.903 581.091 557.055 577.285 565.861 579.57C569.746 580.603 573.052 583.159 575.03 586.66C576.064 588.465 576.868 590.865 577.307 592.887C576.998 598.027 576.211 599.921 574.546 604.868L575.3 605.281C591.264 592.219 576.91 573.382 560.496 571.859C552.105 572.997 549.895 575.456 544.771 582.204C544.03 583.172 543.313 584.159 542.62 585.162ZM1163.91 486.725C1153.15 499.874 1138.8 517.446 1125.53 528.43L1126.68 529.229C1128.2 529.776 1130.77 531.17 1132.21 530.268C1139.98 525.419 1164.91 494.81 1163.91 486.725Z" fill="#1A1A1A"/>
  <path d="M417.547 503.408C418.984 505.888 419.917 507.571 421.126 510.199C414.463 508.935 409.908 508.703 404.67 504.305C408.529 504.061 414.026 504.409 417.547 503.408Z" fill="#1A1A1A"/>
  <path d="M581.722 524.721C584.876 526.497 607.265 544.925 608.603 547.297L607.25 547.328C595.919 541.792 587.265 536.905 576.508 530.379L581.722 524.721Z" fill="#1A1A1A"/>
  <path d="M860.258 683.142C864.21 691.985 868.305 700.392 870.113 709.946C863.603 706.366 859.8 690.492 860.258 683.142Z" fill="#1A1A1A" opacity="0.02"/>
  <path d="M573.167 425.058C577.075 427.469 590.306 449.012 593.529 454.098C588.827 452.58 576.205 430.139 573.167 425.058Z" fill="#1A1A1A" opacity="0.1"/>
  <path d="M346.696 277.008C359.65 276.494 375.559 276.918 388.688 276.918H469.348L543.766 276.914C550.925 276.912 579.114 275.744 583.751 278.416C586.173 281.812 585.737 283.716 582.287 286.249C574.752 288.009 556.984 287.496 548.452 287.484L499.448 287.445L403.138 287.382C387.075 287.382 364.129 288.879 348.038 285.957C345.916 285.571 344.997 283.804 344.208 281.968C344.732 278.631 344.239 279.917 346.696 277.008Z" fill="#1A1A1A"/>
  <path d="M579.667 631.896C589.433 635.041 599.009 638.749 608.346 643.005C605.172 653.431 589.606 688.65 591.266 697.093C592.56 703.672 596.653 708.897 599.008 715.033C599.65 716.706 600.028 717.545 599.323 719.168C595.783 720.369 591.4 720.005 587.591 719.932C579.922 720.006 554.32 721.6 549.442 717.363C547.965 712.523 568.643 697.221 571.923 688.751C579.514 669.145 573.907 652.247 579.667 631.896Z" fill="#1A1A1A"/>
  <path d="M318 347C301 380 301 426 318 459C311 456 305 448 301 440C292 420 292 386 301 366C305 358 311 350 318 347Z" fill="#1A1A1A"/>
  <path d="M356 365C346 389 346 417 356 441C351 438 347 432 344 425C338 409 338 397 344 381C347 374 351 368 356 365Z" fill="#1A1A1A"/>
</svg>
